<mxfile host="app.diagrams.net" modified="2021-12-22T06:54:24.023Z" agent="5.0 (Macintosh; Intel Mac OS X 10_15_7) AppleWebKit/605.1.15 (KHTML, like Gecko) Version/14.1.2 Safari/605.1.15" etag="xENh74oMytSdtISeSZXu" version="16.0.3" type="github">
  <diagram id="2CRu1xBpQiqfnDSB-3ux" name="Page-1">
    <mxGraphModel dx="976" dy="729" grid="1" gridSize="10" guides="1" tooltips="1" connect="1" arrows="1" fold="1" page="1" pageScale="1" pageWidth="827" pageHeight="1169" math="0" shadow="0">
      <root>
        <mxCell id="0" />
        <mxCell id="1" parent="0" />
        <mxCell id="zs2Ltub_bpLeVx4QDJYA-30" value="" style="rounded=1;whiteSpace=wrap;html=1;strokeWidth=0;" vertex="1" parent="1">
          <mxGeometry x="520" y="60" width="400" height="360" as="geometry" />
        </mxCell>
        <mxCell id="zs2Ltub_bpLeVx4QDJYA-28" value="" style="rounded=1;whiteSpace=wrap;html=1;strokeWidth=0;" vertex="1" parent="1">
          <mxGeometry x="40" y="60" width="400" height="360" as="geometry" />
        </mxCell>
        <mxCell id="zs2Ltub_bpLeVx4QDJYA-9" value="" style="edgeStyle=orthogonalEdgeStyle;rounded=0;orthogonalLoop=1;jettySize=auto;html=1;exitX=0.5;exitY=1;exitDx=0;exitDy=0;" edge="1" parent="1" source="zs2Ltub_bpLeVx4QDJYA-4" target="zs2Ltub_bpLeVx4QDJYA-8">
          <mxGeometry relative="1" as="geometry">
            <mxPoint x="530" y="200" as="sourcePoint" />
          </mxGeometry>
        </mxCell>
        <mxCell id="zs2Ltub_bpLeVx4QDJYA-4" value="supplier-booking" style="rounded=0;whiteSpace=wrap;html=1;" vertex="1" parent="1">
          <mxGeometry x="80" y="110" width="120" height="60" as="geometry" />
        </mxCell>
        <mxCell id="zs2Ltub_bpLeVx4QDJYA-8" value="tis-order" style="rounded=0;whiteSpace=wrap;html=1;" vertex="1" parent="1">
          <mxGeometry x="80" y="260" width="120" height="60" as="geometry" />
        </mxCell>
        <mxCell id="zs2Ltub_bpLeVx4QDJYA-13" value="tis-order-job" style="rounded=0;whiteSpace=wrap;html=1;" vertex="1" parent="1">
          <mxGeometry x="280" y="260" width="120" height="60" as="geometry" />
        </mxCell>
        <mxCell id="zs2Ltub_bpLeVx4QDJYA-17" value="" style="edgeStyle=orthogonalEdgeStyle;rounded=0;orthogonalLoop=1;jettySize=auto;html=1;exitX=0.5;exitY=1;exitDx=0;exitDy=0;" edge="1" parent="1" source="zs2Ltub_bpLeVx4QDJYA-18" target="zs2Ltub_bpLeVx4QDJYA-21">
          <mxGeometry relative="1" as="geometry">
            <mxPoint x="1030" y="200" as="sourcePoint" />
          </mxGeometry>
        </mxCell>
        <mxCell id="zs2Ltub_bpLeVx4QDJYA-18" value="supplier-booking" style="rounded=0;whiteSpace=wrap;html=1;" vertex="1" parent="1">
          <mxGeometry x="580" y="110" width="120" height="60" as="geometry" />
        </mxCell>
        <mxCell id="zs2Ltub_bpLeVx4QDJYA-19" value="" style="edgeStyle=orthogonalEdgeStyle;rounded=0;orthogonalLoop=1;jettySize=auto;html=1;" edge="1" parent="1" source="zs2Ltub_bpLeVx4QDJYA-21" target="zs2Ltub_bpLeVx4QDJYA-22">
          <mxGeometry relative="1" as="geometry" />
        </mxCell>
        <mxCell id="zs2Ltub_bpLeVx4QDJYA-20" value="N %" style="edgeLabel;html=1;align=center;verticalAlign=middle;resizable=0;points=[];" vertex="1" connectable="0" parent="zs2Ltub_bpLeVx4QDJYA-19">
          <mxGeometry x="-0.125" y="1" relative="1" as="geometry">
            <mxPoint as="offset" />
          </mxGeometry>
        </mxCell>
        <mxCell id="zs2Ltub_bpLeVx4QDJYA-21" value="tis-order" style="rounded=0;whiteSpace=wrap;html=1;" vertex="1" parent="1">
          <mxGeometry x="580" y="260" width="120" height="60" as="geometry" />
        </mxCell>
        <mxCell id="zs2Ltub_bpLeVx4QDJYA-22" value="tis-booking" style="rounded=0;whiteSpace=wrap;html=1;" vertex="1" parent="1">
          <mxGeometry x="770" y="260" width="120" height="60" as="geometry" />
        </mxCell>
        <mxCell id="zs2Ltub_bpLeVx4QDJYA-24" value="job" style="rounded=0;whiteSpace=wrap;html=1;strokeWidth=0;" vertex="1" parent="1">
          <mxGeometry x="860" y="290" width="30" height="30" as="geometry" />
        </mxCell>
        <mxCell id="zs2Ltub_bpLeVx4QDJYA-25" value="" style="endArrow=none;dashed=1;html=1;rounded=0;" edge="1" parent="1">
          <mxGeometry width="50" height="50" relative="1" as="geometry">
            <mxPoint x="480" y="400" as="sourcePoint" />
            <mxPoint x="480" y="80" as="targetPoint" />
          </mxGeometry>
        </mxCell>
        <mxCell id="zs2Ltub_bpLeVx4QDJYA-26" value="" style="shape=flexArrow;endArrow=classic;html=1;rounded=0;" edge="1" parent="1">
          <mxGeometry width="50" height="50" relative="1" as="geometry">
            <mxPoint x="440" y="240" as="sourcePoint" />
            <mxPoint x="520" y="240" as="targetPoint" />
          </mxGeometry>
        </mxCell>
        <mxCell id="zs2Ltub_bpLeVx4QDJYA-27" value="" style="edgeStyle=orthogonalEdgeStyle;rounded=0;orthogonalLoop=1;jettySize=auto;html=1;entryX=0.5;entryY=0;entryDx=0;entryDy=0;" edge="1" parent="1" target="zs2Ltub_bpLeVx4QDJYA-13">
          <mxGeometry relative="1" as="geometry">
            <mxPoint x="340" y="170" as="sourcePoint" />
            <mxPoint x="150" y="270" as="targetPoint" />
          </mxGeometry>
        </mxCell>
        <mxCell id="zs2Ltub_bpLeVx4QDJYA-29" value="Now" style="text;html=1;strokeColor=none;fillColor=none;align=center;verticalAlign=middle;whiteSpace=wrap;rounded=0;" vertex="1" parent="1">
          <mxGeometry x="354" y="80" width="60" height="30" as="geometry" />
        </mxCell>
        <mxCell id="zs2Ltub_bpLeVx4QDJYA-31" value="New" style="text;html=1;strokeColor=none;fillColor=none;align=center;verticalAlign=middle;whiteSpace=wrap;rounded=0;" vertex="1" parent="1">
          <mxGeometry x="840" y="80" width="60" height="30" as="geometry" />
        </mxCell>
        <mxCell id="zs2Ltub_bpLeVx4QDJYA-36" value="adapter" style="rounded=0;whiteSpace=wrap;html=1;strokeWidth=0;" vertex="1" parent="1">
          <mxGeometry x="663" y="290" width="40" height="30" as="geometry" />
        </mxCell>
      </root>
    </mxGraphModel>
  </diagram>
</mxfile>
